<svg width="367" height="371" viewBox="0 0 367.178 371.472" fill="#023250" xmlns="http://www.w3.org/2000/svg">
  <!-- C shape -->
  <path d="M185.736 242.887a57.15 57.15 0 1 1 44.764-92.648l44.781-35.517a114.3 114.3 0 1 0 0 142.03L230.5 221.237a57.019 57.019 0 0 1-44.763 21.65"/>
  <!-- Horizontal dots (left→right, 0.1→1.0) -->
  <path d="m200.024 185.737a14.288 14.288 0 1 1-14.288-14.288 14.288 14.288 0 0 1 14.288 14.288z" opacity="0.1"/>
  <path d="m238.315 185.737a14.288 14.288 0 1 1-14.288-14.288v0a14.288 14.288 0 0 1 14.288 14.286v0" opacity="0.25"/>
  <path d="m276.605 185.737a14.288 14.288 0 1 1-14.288-14.288 14.288 14.288 0 0 1 14.288 14.288z" opacity="0.5"/>
  <path d="m314.895 185.737a14.288 14.288 0 1 1-14.289-14.288 14.288 14.288 0 0 1 14.289 14.288z" opacity="0.75"/>
  <path d="M353.186 185.736A14.288 14.288 0 1 1 338.9 171.448a14.288 14.288 0 0 1 14.288 14.288z"/>
  <!-- Upper-right arc (0.1→1.0) -->
  <path d="m366.821 144.407a14.288 14.288 0 1 1-17.112-10.747 14.288 14.288 0 0 1 17.112 10.747" opacity="0.1"/>
  <path d="m353.08 105.148a14.287 14.287 0 1 1-19.072-6.674 14.287 14.287 0 0 1 19.072 6.674" opacity="0.25"/>
  <path d="m330.951 69.931a14.287 14.287 0 1 1-20.079-2.262 14.288 14.288 0 0 1 20.079 2.262z" opacity="0.5"/>
  <path d="m301.541 40.522a14.287 14.287 0 1 1-20.079 2.263 14.288 14.288 0 0 1 20.079-2.263" opacity="0.75"/>
  <path d="m266.325 18.394a14.287 14.287 0 1 1-19.072 6.674 14.286 14.286 0 0 1 19.072-6.674"/>
  <!-- Top arc (0.1→0.75) -->
  <path d="M227.067 4.656A14.287 14.287 0 1 1 209.959 15.407 14.287 14.287 0 0 1 227.067 4.656" opacity="0.1"/>
  <path d="M185.738 0A14.288 14.288 0 1 1 171.45 14.288 14.288 14.288 0 0 1 185.738 0" opacity="0.25"/>
  <path d="m144.407 4.656a14.287 14.287 0 1 1-10.747 17.11 14.287 14.287 0 0 1 10.747-17.11" opacity="0.5"/>
  <path d="m105.148 18.394a14.287 14.287 0 1 1-6.674 19.072 14.287 14.287 0 0 1 6.674-19.072" opacity="0.75"/>
  <!-- Upper-left (full) -->
  <path d="M69.931 40.523A14.287 14.287 0 1 1 67.668 60.6 14.288 14.288 0 0 1 69.931 40.521"/>
  <!-- Left arc (0.1→0.75) -->
  <path d="M40.523 69.931A14.287 14.287 0 1 1 42.784 90.01 14.288 14.288 0 0 1 40.523 69.931" opacity="0.1"/>
  <path d="M18.4 105.148A14.287 14.287 0 1 1 25.074 124.22 14.288 14.288 0 0 1 18.4 105.148" opacity="0.25"/>
  <path d="M4.657 144.407A14.287 14.287 0 1 1 15.406 161.515 14.286 14.286 0 0 1 4.657 144.407" opacity="0.5"/>
  <path d="M0 185.737A14.288 14.288 0 1 1 14.288 200.025 14.288 14.288 0 0 1 0 185.737" opacity="0.75"/>
  <!-- Left-center (full) -->
  <path d="m4.657 227.067a14.287 14.287 0 1 1 17.108 10.75 14.287 14.287 0 0 1-17.108-10.75"/>
  <!-- Lower-left arc (0.1→0.75) -->
  <path d="M18.4 266.325A14.287 14.287 0 1 1 37.467 273 14.287 14.287 0 0 1 18.4 266.325" opacity="0.1"/>
  <path d="M40.523 301.541A14.287 14.287 0 1 1 60.6 303.8 14.286 14.286 0 0 1 40.521 301.536" opacity="0.25"/>
  <path d="M69.931 330.951A14.287 14.287 0 1 1 90.01 328.69 14.288 14.288 0 0 1 69.931 330.951" opacity="0.5"/>
  <path d="m105.148 353.079a14.287 14.287 0 1 1 19.072-6.679 14.288 14.288 0 0 1-19.072 6.674" opacity="0.75"/>
  <!-- Bottom-left (full) -->
  <path d="m144.407 366.816a14.287 14.287 0 1 1 17.108-10.75 14.288 14.288 0 0 1-17.108 10.75"/>
  <!-- Bottom arc (0.1→0.75) -->
  <path d="m185.738 371.472a14.288 14.288 0 1 1 14.288-14.288 14.288 14.288 0 0 1-14.288 14.288z" opacity="0.1"/>
  <path d="m227.067 366.815a14.287 14.287 0 1 1 10.75-17.108 14.287 14.287 0 0 1-10.75 17.108" opacity="0.25"/>
  <path d="M266.325 353.079A14.287 14.287 0 1 1 273 334.007 14.287 14.287 0 0 1 266.326 353.079" opacity="0.5"/>
  <path d="m301.541 330.951a14.287 14.287 0 1 1 2.263-20.079 14.288 14.288 0 0 1-2.263 20.079" opacity="0.75"/>
  <!-- Bottom-right (full) -->
  <path d="m330.95 301.541a14.287 14.287 0 1 1-2.263-20.079 14.288 14.288 0 0 1 2.263 20.079"/>
</svg>
