<?xml version="1.0" encoding="UTF-8" standalone="no"?>
<svg
   width="1002.1886"
   height="120.94836"
   viewBox="0 0 1002.1886 120.94836"
   version="1.1"
   id="svg1"
   sodipodi:docname="logo_engine_text_blue.svg"
   inkscape:version="1.3.1 (91b66b0, 2023-11-16)"
   inkscape:export-filename="logo_engine_text_blue.png"
   inkscape:export-xdpi="103.45358"
   inkscape:export-ydpi="103.45358"
   xmlns:inkscape="http://www.inkscape.org/namespaces/inkscape"
   xmlns:sodipodi="http://sodipodi.sourceforge.net/DTD/sodipodi-0.dtd"
   xmlns="http://www.w3.org/2000/svg"
   xmlns:svg="http://www.w3.org/2000/svg">
  <sodipodi:namedview
     id="namedview1"
     pagecolor="#ffffff"
     bordercolor="#cccccc"
     borderopacity="1"
     inkscape:showpageshadow="0"
     inkscape:pageopacity="1"
     inkscape:pagecheckerboard="0"
     inkscape:deskcolor="#d1d1d1"
     inkscape:zoom="0.32321807"
     inkscape:cx="495.02183"
     inkscape:cy="-40.220524"
     inkscape:window-width="1392"
     inkscape:window-height="1021"
     inkscape:window-x="0"
     inkscape:window-y="31"
     inkscape:window-maximized="0"
     inkscape:current-layer="svg1" />
  <defs
     id="defs1">
    <clipPath
       id="clip-path-3">
      <rect
         id="Rectangle_4600"
         data-name="Rectangle 4600"
         width="22.632"
         height="22.632"
         fill="#023250"
         x="0"
         y="0" />
    </clipPath>
    <clipPath
       id="clip-path-4">
      <rect
         id="Rectangle_4599"
         data-name="Rectangle 4599"
         width="22.631001"
         height="22.631001"
         fill="#023250"
         x="0"
         y="0" />
    </clipPath>
    <clipPath
       id="clip-path-5">
      <rect
         id="Rectangle_4602"
         data-name="Rectangle 4602"
         width="22.632999"
         height="22.632"
         fill="#023250"
         x="0"
         y="0" />
    </clipPath>
    <clipPath
       id="clip-path-11">
      <rect
         id="Rectangle_4608"
         data-name="Rectangle 4608"
         width="22.639999"
         height="22.639"
         fill="#023250"
         x="0"
         y="0" />
    </clipPath>
    <clipPath
       id="clip-path-12">
      <rect
         id="Rectangle_4607"
         data-name="Rectangle 4607"
         width="22.636"
         height="22.636"
         fill="#023250"
         x="0"
         y="0" />
    </clipPath>
    <clipPath
       id="clip-path-15">
      <rect
         id="Rectangle_4612"
         data-name="Rectangle 4612"
         width="22.632999"
         height="22.634001"
         fill="#023250"
         x="0"
         y="0" />
    </clipPath>
    <clipPath
       id="clip-path-16">
      <rect
         id="Rectangle_4611"
         data-name="Rectangle 4611"
         width="22.632999"
         height="22.632999"
         fill="#023250"
         x="0"
         y="0" />
    </clipPath>
    <clipPath
       id="clip-path-23">
      <rect
         id="Rectangle_4620"
         data-name="Rectangle 4620"
         width="22.639"
         height="22.636999"
         fill="#023250"
         x="0"
         y="0" />
    </clipPath>
    <clipPath
       id="clip-path-25">
      <rect
         id="Rectangle_4622"
         data-name="Rectangle 4622"
         width="22.636999"
         height="22.636999"
         fill="#023250"
         x="0"
         y="0" />
    </clipPath>
    <clipPath
       id="clip-path-27">
      <rect
         id="Rectangle_4624"
         data-name="Rectangle 4624"
         width="22.632"
         height="22.632999"
         fill="#023250"
         x="0"
         y="0" />
    </clipPath>
    <clipPath
       id="clip-path-29">
      <rect
         id="Rectangle_4626"
         data-name="Rectangle 4626"
         width="22.636"
         height="22.636999"
         fill="#023250"
         x="0"
         y="0" />
    </clipPath>
    <clipPath
       id="clip-path-37">
      <rect
         id="Rectangle_4634"
         data-name="Rectangle 4634"
         width="22.634001"
         height="22.632999"
         fill="#023250"
         x="0"
         y="0" />
    </clipPath>
    <clipPath
       id="clip-path-47">
      <rect
         id="Rectangle_4644"
         data-name="Rectangle 4644"
         width="22.636999"
         height="22.636"
         fill="#023250"
         x="0"
         y="0" />
    </clipPath>
    <clipPath
       clipPathUnits="userSpaceOnUse"
       id="clipPath13">
      <g
         id="g17">
        <g
           id="g16">
          <g
             id="g15">
            <g
               id="g14">
              <rect
                 width="1417"
                 height="470"
                 id="rect13"
                 x="-112"
                 y="-87.896004" />
            </g>
          </g>
        </g>
      </g>
    </clipPath>
    <clipPath
       clipPathUnits="userSpaceOnUse"
       id="clipPath18">
      <g
         id="g22">
        <g
           id="g21">
          <g
             id="g20">
            <g
               id="g19">
              <rect
                 width="1417"
                 height="470"
                 id="rect18"
                 x="-112"
                 y="-87.896004" />
            </g>
          </g>
        </g>
      </g>
    </clipPath>
  </defs>
  <g
     id="Group_7236"
     data-name="Group 7236"
     clip-path="url(#clipPath13)"
     transform="scale(0.41110093)">
    <path
       id="Path_6415"
       data-name="Path 6415"
       d="m 161.957,207.225 a 45.263,45.263 0 1 1 35.452,-73.377 l 35.467,-28.13 a 90.526,90.526 0 1 0 0,112.488 l -35.467,-28.128 a 45.159,45.159 0 0 1 -35.452,17.147"
       transform="translate(-14.854,-14.858)"
       fill="#023250" />
    <g
       id="Group_7120"
       data-name="Group 7120"
       transform="translate(135.787,135.788)"
       opacity="0.1">
      <g
         id="Group_7119"
         data-name="Group 7119">
        <g
           id="Group_7118"
           data-name="Group 7118"
           clip-path="url(#clip-path-3)">
          <g
             id="Group_7117"
             data-name="Group 7117"
             transform="translate(0.002,0.001)">
            <g
               id="Group_7116"
               data-name="Group 7116"
               clip-path="url(#clip-path-4)">
              <path
                 id="Path_6416"
                 data-name="Path 6416"
                 d="m 194.08,182.765 a 11.316,11.316 0 1 1 -11.316,-11.316 11.316,11.316 0 0 1 11.316,11.316 z"
                 transform="translate(-171.45,-171.45)"
                 fill="#023250" />
            </g>
          </g>
        </g>
      </g>
    </g>
    <g
       id="Group_7125"
       data-name="Group 7125"
       transform="translate(166.114,135.788)"
       opacity="0.25">
      <g
         id="Group_7124"
         data-name="Group 7124">
        <g
           id="Group_7123"
           data-name="Group 7123"
           clip-path="url(#clip-path-5)">
          <g
             id="Group_7122"
             data-name="Group 7122"
             transform="translate(0,0.001)">
            <g
               id="Group_7121"
               data-name="Group 7121"
               clip-path="url(#clip-path-4)">
              <path
                 id="Path_6417"
                 data-name="Path 6417"
                 d="m 232.371,182.765 a 11.316,11.316 0 1 1 -11.316,-11.316 v 0 a 11.316,11.316 0 0 1 11.316,11.315 v 0"
                 transform="translate(-209.739,-171.45)"
                 fill="#023250" />
            </g>
          </g>
        </g>
      </g>
    </g>
    <g
       id="Group_7130"
       data-name="Group 7130"
       transform="translate(196.439,135.788)"
       opacity="0.5">
      <g
         id="Group_7129"
         data-name="Group 7129">
        <g
           id="Group_7128"
           data-name="Group 7128"
           clip-path="url(#clip-path-3)">
          <g
             id="Group_7127"
             data-name="Group 7127"
             transform="translate(0.001,0.001)">
            <g
               id="Group_7126"
               data-name="Group 7126"
               clip-path="url(#clip-path-4)">
              <path
                 id="Path_6418"
                 data-name="Path 6418"
                 d="m 270.661,182.765 a 11.316,11.316 0 1 1 -11.316,-11.316 11.316,11.316 0 0 1 11.316,11.316 z"
                 transform="translate(-248.03,-171.45)"
                 fill="#023250" />
            </g>
          </g>
        </g>
      </g>
    </g>
    <g
       id="Group_7135"
       data-name="Group 7135"
       transform="translate(226.765,135.788)"
       opacity="0.75">
      <g
         id="Group_7134"
         data-name="Group 7134">
        <g
           id="Group_7133"
           data-name="Group 7133"
           clip-path="url(#clip-path-3)">
          <g
             id="Group_7132"
             data-name="Group 7132"
             transform="translate(0.001,0.001)">
            <g
               id="Group_7131"
               data-name="Group 7131"
               clip-path="url(#clip-path-4)">
              <path
                 id="Path_6419"
                 data-name="Path 6419"
                 d="m 308.951,182.765 a 11.316,11.316 0 1 1 -11.317,-11.316 11.316,11.316 0 0 1 11.317,11.316 z"
                 transform="translate(-286.32,-171.45)"
                 fill="#023250" />
            </g>
          </g>
        </g>
      </g>
    </g>
    <path
       id="Path_6420"
       data-name="Path 6420"
       d="m 347.242,182.764 a 11.316,11.316 0 1 1 -11.316,-11.316 11.316,11.316 0 0 1 11.316,11.316 z"
       transform="translate(-67.518,-35.661)"
       fill="#023250" />
    <g
       id="Group_7140"
       data-name="Group 7140"
       transform="translate(268.169,105.57)"
       opacity="0.1">
      <g
         id="Group_7139"
         data-name="Group 7139">
        <g
           id="Group_7138"
           data-name="Group 7138"
           clip-path="url(#clip-path-11)">
          <g
             id="Group_7137"
             data-name="Group 7137">
            <g
               id="Group_7136"
               data-name="Group 7136"
               clip-path="url(#clip-path-12)">
              <path
                 id="Path_6421"
                 data-name="Path 6421"
                 d="m 360.951,142.1 a 11.316,11.316 0 1 1 -13.553,-8.512 11.316,11.316 0 0 1 13.553,8.512 v 0"
                 transform="translate(-338.598,-133.296)"
                 fill="#023250" />
            </g>
          </g>
        </g>
      </g>
    </g>
    <g
       id="Group_7145"
       data-name="Group 7145"
       transform="translate(258.127,76.869)"
       opacity="0.25">
      <g
         id="Group_7144"
         data-name="Group 7144">
        <g
           id="Group_7143"
           data-name="Group 7143"
           clip-path="url(#clip-path-12)">
          <g
             id="Group_7142"
             data-name="Group 7142">
            <g
               id="Group_7141"
               data-name="Group 7141"
               clip-path="url(#clip-path-12)">
              <path
                 id="Path_6422"
                 data-name="Path 6422"
                 d="m 347.43,103.465 a 11.315,11.315 0 1 1 -15.105,-5.286 11.315,11.315 0 0 1 15.105,5.286"
                 transform="translate(-325.917,-97.056)"
                 fill="#023250" />
            </g>
          </g>
        </g>
      </g>
    </g>
    <g
       id="Group_7150"
       data-name="Group 7150"
       transform="translate(241.951,51.124)"
       opacity="0.5">
      <g
         id="Group_7149"
         data-name="Group 7149">
        <g
           id="Group_7148"
           data-name="Group 7148"
           clip-path="url(#clip-path-15)">
          <g
             id="Group_7147"
             data-name="Group 7147"
             transform="translate(0,0.001)">
            <g
               id="Group_7146"
               data-name="Group 7146"
               clip-path="url(#clip-path-16)">
              <path
                 id="Path_6423"
                 data-name="Path 6423"
                 d="m 325.656,68.812 a 11.315,11.315 0 1 1 -15.9,-1.792 11.316,11.316 0 0 1 15.9,1.792 z"
                 transform="translate(-305.493,-64.551)"
                 fill="#023250" />
            </g>
          </g>
        </g>
      </g>
    </g>
    <g
       id="Group_7155"
       data-name="Group 7155"
       transform="translate(220.45,29.623)"
       opacity="0.75">
      <g
         id="Group_7154"
         data-name="Group 7154">
        <g
           id="Group_7153"
           data-name="Group 7153"
           clip-path="url(#clip-path-16)">
          <g
             id="Group_7152"
             data-name="Group 7152">
            <g
               id="Group_7151"
               data-name="Group 7151"
               clip-path="url(#clip-path-16)">
              <path
                 id="Path_6424"
                 data-name="Path 6424"
                 d="m 296.716,39.874 a 11.315,11.315 0 1 1 -15.9,1.792 11.316,11.316 0 0 1 15.9,-1.792 v 0"
                 transform="translate(-278.345,-37.403)"
                 fill="#023250" />
            </g>
          </g>
        </g>
      </g>
    </g>
    <path
       id="Path_6425"
       data-name="Path 6425"
       d="M 262.063,18.1 A 11.315,11.315 0 1 1 246.958,23.386 11.315,11.315 0 0 1 262.063,18.1"
       transform="translate(-51.133,-3.531)"
       fill="#023250" />
    <g
       id="Group_7160"
       data-name="Group 7160"
       transform="translate(166.001,3.402)"
       opacity="0.1">
      <g
         id="Group_7159"
         data-name="Group 7159">
        <g
           id="Group_7158"
           data-name="Group 7158"
           clip-path="url(#clip-path-12)">
          <g
             id="Group_7157"
             data-name="Group 7157">
            <g
               id="Group_7156"
               data-name="Group 7156"
               clip-path="url(#clip-path-12)">
              <path
                 id="Path_6426"
                 data-name="Path 6426"
                 d="m 223.433,4.581 a 11.315,11.315 0 1 1 -13.55,8.515 11.315,11.315 0 0 1 13.55,-8.515"
                 transform="translate(-209.597,-4.295)"
                 fill="#023250" />
            </g>
          </g>
        </g>
      </g>
    </g>
    <g
       id="Group_7165"
       data-name="Group 7165"
       transform="translate(135.789)"
       opacity="0.25">
      <g
         id="Group_7164"
         data-name="Group 7164">
        <g
           id="Group_7163"
           data-name="Group 7163"
           clip-path="url(#clip-path-3)">
          <g
             id="Group_7162"
             data-name="Group 7162">
            <g
               id="Group_7161"
               data-name="Group 7161"
               clip-path="url(#clip-path-4)">
              <path
                 id="Path_6427"
                 data-name="Path 6427"
                 d="M 182.766,0 A 11.316,11.316 0 1 1 171.45,11.316 11.316,11.316 0 0 1 182.766,0"
                 transform="translate(-171.45)"
                 fill="#023250" />
            </g>
          </g>
        </g>
      </g>
    </g>
    <g
       id="Group_7170"
       data-name="Group 7170"
       transform="translate(105.57,3.401)"
       opacity="0.5">
      <g
         id="Group_7169"
         data-name="Group 7169">
        <g
           id="Group_7168"
           data-name="Group 7168"
           clip-path="url(#clip-path-23)">
          <g
             id="Group_7167"
             data-name="Group 7167"
             transform="translate(0,0.001)">
            <g
               id="Group_7166"
               data-name="Group 7166"
               clip-path="url(#clip-path-12)">
              <path
                 id="Path_6428"
                 data-name="Path 6428"
                 d="m 142.1,4.581 a 11.315,11.315 0 1 1 -8.512,13.551 v 0 A 11.315,11.315 0 0 1 142.1,4.581"
                 transform="translate(-133.296,-4.295)"
                 fill="#023250" />
            </g>
          </g>
        </g>
      </g>
    </g>
    <g
       id="Group_7175"
       data-name="Group 7175"
       transform="translate(76.869,13.444)"
       opacity="0.75">
      <g
         id="Group_7174"
         data-name="Group 7174">
        <g
           id="Group_7173"
           data-name="Group 7173"
           clip-path="url(#clip-path-25)">
          <g
             id="Group_7172"
             data-name="Group 7172"
             transform="translate(0.001)">
            <g
               id="Group_7171"
               data-name="Group 7171"
               clip-path="url(#clip-path-12)">
              <path
                 id="Path_6429"
                 data-name="Path 6429"
                 d="m 103.465,18.1 a 11.315,11.315 0 1 1 -5.286,15.1 11.315,11.315 0 0 1 5.286,-15.1"
                 transform="translate(-97.057,-16.975)"
                 fill="#023250" />
            </g>
          </g>
        </g>
      </g>
    </g>
    <path
       id="Path_6430"
       data-name="Path 6430"
       d="m 68.812,39.875 a 11.316,11.316 0 1 1 -1.792,15.9 11.316,11.316 0 0 1 1.792,-15.9 v 0"
       transform="translate(-13.426,-7.78)"
       fill="#023250" />
    <g
       id="Group_7180"
       data-name="Group 7180"
       transform="translate(29.624,51.125)"
       opacity="0.1">
      <g
         id="Group_7179"
         data-name="Group 7179">
        <g
           id="Group_7178"
           data-name="Group 7178"
           clip-path="url(#clip-path-27)">
          <g
             id="Group_7177"
             data-name="Group 7177">
            <g
               id="Group_7176"
               data-name="Group 7176"
               clip-path="url(#clip-path-27)">
              <path
                 id="Path_6431"
                 data-name="Path 6431"
                 d="m 39.874,68.812 a 11.315,11.315 0 1 1 1.791,15.9 11.316,11.316 0 0 1 -1.791,-15.9 v 0"
                 transform="translate(-37.404,-64.551)"
                 fill="#023250" />
            </g>
          </g>
        </g>
      </g>
    </g>
    <g
       id="Group_7185"
       data-name="Group 7185"
       transform="translate(13.445,76.869)"
       opacity="0.25">
      <g
         id="Group_7184"
         data-name="Group 7184">
        <g
           id="Group_7183"
           data-name="Group 7183"
           clip-path="url(#clip-path-29)">
          <g
             id="Group_7182"
             data-name="Group 7182">
            <g
               id="Group_7181"
               data-name="Group 7181"
               clip-path="url(#clip-path-12)">
              <path
                 id="Path_6432"
                 data-name="Path 6432"
                 d="M 18.1,103.465 A 11.315,11.315 0 1 1 23.386,118.57 11.316,11.316 0 0 1 18.1,103.465"
                 transform="translate(-16.976,-97.056)"
                 fill="#023250" />
            </g>
          </g>
        </g>
      </g>
    </g>
    <g
       id="Group_7190"
       data-name="Group 7190"
       transform="translate(3.402,105.57)"
       opacity="0.5">
      <g
         id="Group_7189"
         data-name="Group 7189">
        <g
           id="Group_7188"
           data-name="Group 7188"
           clip-path="url(#clip-path-12)">
          <g
             id="Group_7187"
             data-name="Group 7187">
            <g
               id="Group_7186"
               data-name="Group 7186"
               clip-path="url(#clip-path-12)">
              <path
                 id="Path_6433"
                 data-name="Path 6433"
                 d="M 4.582,142.1 A 11.316,11.316 0 1 1 13.095,155.65 11.315,11.315 0 0 1 4.582,142.1"
                 transform="translate(-4.295,-133.295)"
                 fill="#023250" />
            </g>
          </g>
        </g>
      </g>
    </g>
    <g
       id="Group_7195"
       data-name="Group 7195"
       transform="translate(0,135.788)"
       opacity="0.75">
      <g
         id="Group_7194"
         data-name="Group 7194">
        <g
           id="Group_7193"
           data-name="Group 7193"
           clip-path="url(#clip-path-3)">
          <g
             id="Group_7192"
             data-name="Group 7192"
             transform="translate(0,0.001)">
            <g
               id="Group_7191"
               data-name="Group 7191"
               clip-path="url(#clip-path-4)">
              <path
                 id="Path_6434"
                 data-name="Path 6434"
                 d="M 0,182.765 A 11.316,11.316 0 1 1 11.316,194.081 11.316,11.316 0 0 1 0,182.765"
                 transform="translate(0,-171.45)"
                 fill="#023250" />
            </g>
          </g>
        </g>
      </g>
    </g>
    <path
       id="Path_6435"
       data-name="Path 6435"
       d="m 4.582,223.433 a 11.315,11.315 0 1 1 13.55,8.514 11.315,11.315 0 0 1 -13.55,-8.514"
       transform="translate(-0.893,-43.596)"
       fill="#023250" />
    <g
       id="Group_7200"
       data-name="Group 7200"
       transform="translate(13.445,194.702)"
       opacity="0.1">
      <g
         id="Group_7199"
         data-name="Group 7199">
        <g
           id="Group_7198"
           data-name="Group 7198"
           clip-path="url(#clip-path-25)">
          <g
             id="Group_7197"
             data-name="Group 7197">
            <g
               id="Group_7196"
               data-name="Group 7196"
               clip-path="url(#clip-path-12)">
              <path
                 id="Path_6436"
                 data-name="Path 6436"
                 d="M 18.1,262.063 A 11.315,11.315 0 1 1 33.205,267.349 11.315,11.315 0 0 1 18.1,262.063"
                 transform="translate(-16.976,-245.835)"
                 fill="#023250" />
            </g>
          </g>
        </g>
      </g>
    </g>
    <g
       id="Group_7205"
       data-name="Group 7205"
       transform="translate(29.624,220.45)"
       opacity="0.25">
      <g
         id="Group_7204"
         data-name="Group 7204">
        <g
           id="Group_7203"
           data-name="Group 7203"
           clip-path="url(#clip-path-37)">
          <g
             id="Group_7202"
             data-name="Group 7202">
            <g
               id="Group_7201"
               data-name="Group 7201"
               clip-path="url(#clip-path-3)">
              <path
                 id="Path_6437"
                 data-name="Path 6437"
                 d="m 39.875,296.717 a 11.315,11.315 0 1 1 15.9,1.793 11.314,11.314 0 0 1 -15.9,-1.793"
                 transform="translate(-37.405,-278.346)"
                 fill="#023250" />
            </g>
          </g>
        </g>
      </g>
    </g>
    <g
       id="Group_7210"
       data-name="Group 7210"
       transform="translate(51.125,241.951)"
       opacity="0.5">
      <g
         id="Group_7209"
         data-name="Group 7209">
        <g
           id="Group_7208"
           data-name="Group 7208"
           clip-path="url(#clip-path-3)">
          <g
             id="Group_7207"
             data-name="Group 7207">
            <g
               id="Group_7206"
               data-name="Group 7206"
               clip-path="url(#clip-path-3)">
              <path
                 id="Path_6438"
                 data-name="Path 6438"
                 d="m 68.812,325.656 a 11.315,11.315 0 1 1 15.9,-1.791 11.316,11.316 0 0 1 -15.9,1.791"
                 transform="translate(-64.552,-305.493)"
                 fill="#023250" />
            </g>
          </g>
        </g>
      </g>
    </g>
    <g
       id="Group_7215"
       data-name="Group 7215"
       transform="translate(76.869,258.126)"
       opacity="0.75">
      <g
         id="Group_7214"
         data-name="Group 7214">
        <g
           id="Group_7213"
           data-name="Group 7213"
           clip-path="url(#clip-path-12)">
          <g
             id="Group_7212"
             data-name="Group 7212">
            <g
               id="Group_7211"
               data-name="Group 7211"
               clip-path="url(#clip-path-12)">
              <path
                 id="Path_6439"
                 data-name="Path 6439"
                 d="m 103.465,347.429 a 11.315,11.315 0 1 1 15.105,-5.286 11.316,11.316 0 0 1 -15.105,5.286"
                 transform="translate(-97.057,-325.916)"
                 fill="#023250" />
            </g>
          </g>
        </g>
      </g>
    </g>
    <path
       id="Path_6440"
       data-name="Path 6440"
       d="m 142.1,360.946 a 11.315,11.315 0 1 1 13.55,-8.514 11.316,11.316 0 0 1 -13.55,8.514"
       transform="translate(-27.725,-70.427)"
       fill="#023250" />
    <g
       id="Group_7220"
       data-name="Group 7220"
       transform="translate(135.789,271.574)"
       opacity="0.1">
      <g
         id="Group_7219"
         data-name="Group 7219">
        <g
           id="Group_7218"
           data-name="Group 7218"
           clip-path="url(#clip-path-27)">
          <g
             id="Group_7217"
             data-name="Group 7217"
             transform="translate(0,0.002)">
            <g
               id="Group_7216"
               data-name="Group 7216"
               clip-path="url(#clip-path-4)">
              <path
                 id="Path_6441"
                 data-name="Path 6441"
                 d="m 182.766,365.528 a 11.316,11.316 0 1 1 11.316,-11.316 11.316,11.316 0 0 1 -11.316,11.316 z"
                 transform="translate(-171.45,-342.898)"
                 fill="#023250" />
            </g>
          </g>
        </g>
      </g>
    </g>
    <g
       id="Group_7225"
       data-name="Group 7225"
       transform="translate(166.001,268.169)"
       opacity="0.25">
      <g
         id="Group_7224"
         data-name="Group 7224">
        <g
           id="Group_7223"
           data-name="Group 7223"
           clip-path="url(#clip-path-12)">
          <g
             id="Group_7222"
             data-name="Group 7222">
            <g
               id="Group_7221"
               data-name="Group 7221"
               clip-path="url(#clip-path-12)">
              <path
                 id="Path_6442"
                 data-name="Path 6442"
                 d="m 223.433,360.945 a 11.315,11.315 0 1 1 8.514,-13.55 11.315,11.315 0 0 1 -8.514,13.55"
                 transform="translate(-209.597,-338.596)"
                 fill="#023250" />
            </g>
          </g>
        </g>
      </g>
    </g>
    <g
       id="Group_7230"
       data-name="Group 7230"
       transform="translate(194.702,258.126)"
       opacity="0.5">
      <g
         id="Group_7229"
         data-name="Group 7229">
        <g
           id="Group_7228"
           data-name="Group 7228"
           clip-path="url(#clip-path-47)">
          <g
             id="Group_7227"
             data-name="Group 7227">
            <g
               id="Group_7226"
               data-name="Group 7226"
               clip-path="url(#clip-path-12)">
              <path
                 id="Path_6443"
                 data-name="Path 6443"
                 d="m 262.063,347.429 a 11.315,11.315 0 1 1 5.286,-15.105 11.315,11.315 0 0 1 -5.286,15.105"
                 transform="translate(-245.835,-325.916)"
                 fill="#023250" />
            </g>
          </g>
        </g>
      </g>
    </g>
    <g
       id="Group_7235"
       data-name="Group 7235"
       transform="translate(220.45,241.951)"
       opacity="0.75">
      <g
         id="Group_7234"
         data-name="Group 7234">
        <g
           id="Group_7233"
           data-name="Group 7233"
           clip-path="url(#clip-path-16)">
          <g
             id="Group_7232"
             data-name="Group 7232">
            <g
               id="Group_7231"
               data-name="Group 7231"
               clip-path="url(#clip-path-5)">
              <path
                 id="Path_6444"
                 data-name="Path 6444"
                 d="m 296.717,325.656 a 11.316,11.316 0 1 1 1.792,-15.9 11.316,11.316 0 0 1 -1.792,15.9"
                 transform="translate(-278.345,-305.493)"
                 fill="#023250" />
            </g>
          </g>
        </g>
      </g>
    </g>
    <path
       id="Path_6445"
       data-name="Path 6445"
       d="m 325.655,296.716 a 11.315,11.315 0 1 1 -1.792,-15.9 11.316,11.316 0 0 1 1.792,15.9"
       transform="translate(-63.542,-57.895)"
       fill="#023250" />
  </g>
  <g
     id="Group_7238"
     data-name="Group 7238"
     clip-path="url(#clipPath18)"
     transform="translate(-190.10119,-86.62882)">
    <path
       id="Path_6446"
       data-name="Path 6446"
       d="m 463.935,140.913 v 5.458 h -18.256 v 60.323 h -6.588 V 146.371 H 420.74 v -5.458 z m 34.914,13.457 a 22.211,22.211 0 0 1 10.493,2.448 17.439,17.439 0 0 1 7.339,7.481 25.838,25.838 0 0 1 2.682,12.281 v 30.114 h -6.493 v -29.362 q 0,-8.374 -4.188,-12.8 -4.188,-4.426 -11.432,-4.422 -7.437,0 -11.857,4.706 -4.42,4.706 -4.423,13.834 v 28.044 h -6.588 v -69.639 h 6.587 v 27.008 a 17.033,17.033 0 0 1 7.2,-7.152 22.3,22.3 0 0 1 10.682,-2.542 z m 81.591,24 q 0,3.387 -0.188,5.175 h -42.631 a 20.681,20.681 0 0 0 2.827,9.975 16.622,16.622 0 0 0 6.681,6.259 19.549,19.549 0 0 0 9.034,2.117 18.152,18.152 0 0 0 10.775,-3.105 14.592,14.592 0 0 0 5.788,-8.377 h 6.964 a 21.759,21.759 0 0 1 -8.048,12.282 q -6.163,4.752 -15.48,4.752 a 25.925,25.925 0 0 1 -12.987,-3.246 22.922,22.922 0 0 1 -8.987,-9.223 28.811,28.811 0 0 1 -3.246,-13.979 29.446,29.446 0 0 1 3.2,-14.022 22.234,22.234 0 0 1 8.94,-9.222 26.4,26.4 0 0 1 13.081,-3.2 25.088,25.088 0 0 1 12.846,3.2 22.1,22.1 0 0 1 8.47,8.61 24.552,24.552 0 0 1 2.964,12 m -6.681,-0.189 a 18.256,18.256 0 0 0 -2.306,-9.788 15.567,15.567 0 0 0 -6.54,-6.117 19.918,19.918 0 0 0 -9.037,-2.069 17.947,17.947 0 0 0 -12.513,4.7 q -5.176,4.706 -5.741,13.269 z"
       transform="translate(-87.513,-28.507)"
       fill="#023250" />
    <path
       id="Path_6447"
       data-name="Path 6447"
       d="m 1135.687,145.665 v 24.562 h 24.939 v 5.458 h -24.939 v 24.939 h 27.762 v 5.458 H 1129.1 v -65.875 h 34.349 v 5.458 z m 64.84,8.093 q 9.222,0 15.057,5.694 5.835,5.694 5.835,16.516 v 30.115 h -6.494 V 176.72 q 0,-8.375 -4.188,-12.8 -4.188,-4.425 -11.437,-4.42 -7.437,0 -11.857,4.705 -4.42,4.705 -4.427,13.834 v 28.044 h -6.585 V 154.7 h 6.585 v 8.752 a 16.813,16.813 0 0 1 7.058,-7.2 21.6,21.6 0 0 1 10.449,-2.495 m 57.03,0.188 a 23.117,23.117 0 0 1 12.61,3.387 19.763,19.763 0 0 1 7.717,8.565 V 154.7 h 6.587 v 52.7 a 25.166,25.166 0 0 1 -3.056,12.517 21.157,21.157 0 0 1 -8.516,8.422 25.6,25.6 0 0 1 -12.42,2.964 q -9.881,0 -16.421,-4.705 a 19.963,19.963 0 0 1 -8.146,-12.8 h 6.494 a 15.807,15.807 0 0 0 6.447,8.564 20.34,20.34 0 0 0 11.623,3.2 18.635,18.635 0 0 0 8.939,-2.116 15.116,15.116 0 0 0 6.211,-6.258 20.143,20.143 0 0 0 2.259,-9.788 v -12.7 a 20.631,20.631 0 0 1 -7.764,8.7 22.635,22.635 0 0 1 -12.563,3.436 24.5,24.5 0 0 1 -12.658,-3.291 22.818,22.818 0 0 1 -8.752,-9.316 32.239,32.239 0 0 1 0,-27.809 22.577,22.577 0 0 1 8.752,-9.223 24.763,24.763 0 0 1 12.658,-3.246 z m 20.327,26.445 a 22.629,22.629 0 0 0 -2.541,-10.917 18.135,18.135 0 0 0 -6.917,-7.246 18.865,18.865 0 0 0 -9.646,-2.541 19.547,19.547 0 0 0 -9.788,2.447 17.341,17.341 0 0 0 -6.822,7.1 23.1,23.1 0 0 0 -2.494,11.058 23.465,23.465 0 0 0 2.494,11.058 17.526,17.526 0 0 0 6.822,7.246 19.25,19.25 0 0 0 9.788,2.494 18.864,18.864 0 0 0 9.646,-2.541 18.134,18.134 0 0 0 6.917,-7.246 22.62,22.62 0 0 0 2.541,-10.917 M 1302.819,145 a 4.617,4.617 0 0 1 -3.388,-1.413 4.727,4.727 0 0 1 -1.413,-3.482 4.576,4.576 0 0 1 1.413,-3.436 4.888,4.888 0 0 1 6.776,0 4.578,4.578 0 0 1 1.413,3.436 4.729,4.729 0 0 1 -1.413,3.482 4.62,4.62 0 0 1 -3.388,1.413 m 3.294,61.076 h -6.587 V 154.7 h 6.587 z m 39.054,-52.324 q 9.222,0 15.057,5.694 5.835,5.694 5.835,16.516 v 30.115 h -6.494 V 176.72 q 0,-8.375 -4.188,-12.8 -4.188,-4.425 -11.434,-4.423 -7.437,0 -11.857,4.705 -4.42,4.705 -4.423,13.833 v 28.045 h -6.587 V 154.7 h 6.587 v 8.752 a 16.813,16.813 0 0 1 7.058,-7.2 21.6,21.6 0 0 1 10.446,-2.495 m 81.968,24 q 0,3.387 -0.188,5.175 h -42.631 a 20.682,20.682 0 0 0 2.827,9.976 16.619,16.619 0 0 0 6.681,6.258 19.558,19.558 0 0 0 9.031,2.117 18.152,18.152 0 0 0 10.775,-3.106 14.581,14.581 0 0 0 5.788,-8.375 h 6.964 a 21.757,21.757 0 0 1 -8.049,12.282 q -6.164,4.752 -15.481,4.753 a 25.925,25.925 0 0 1 -12.984,-3.247 22.927,22.927 0 0 1 -8.987,-9.223 28.824,28.824 0 0 1 -3.247,-13.974 29.452,29.452 0 0 1 3.2,-14.022 22.232,22.232 0 0 1 8.942,-9.222 26.4,26.4 0 0 1 13.081,-3.2 25.1,25.1 0 0 1 12.846,3.2 22.1,22.1 0 0 1 8.47,8.611 24.558,24.558 0 0 1 2.965,12 m -6.682,-0.189 a 18.253,18.253 0 0 0 -2.306,-9.788 15.562,15.562 0 0 0 -6.54,-6.117 19.918,19.918 0 0 0 -9.034,-2.069 17.95,17.95 0 0 0 -12.517,4.705 q -5.176,4.706 -5.74,13.269 z"
       transform="translate(-234.85,-28.144)"
       fill="#023250" />
    <path
       id="Path_6448"
       data-name="Path 6448"
       d="m 642.14,174.486 a 35.511,35.511 0 0 1 4.235,-17.457 30.269,30.269 0 0 1 11.81,-11.952 34.289,34.289 0 0 1 17.175,-4.282 q 11.764,0 20.138,6.211 a 29.83,29.83 0 0 1 11.2,16.94 h -17.692 a 14.292,14.292 0 0 0 -5.6,-6.305 15.742,15.742 0 0 0 -8.234,-2.165 15.37,15.37 0 0 0 -12.048,5.176 q -4.612,5.175 -4.612,13.833 0,8.658 4.612,13.834 a 15.372,15.372 0 0 0 12.048,5.175 15.742,15.742 0 0 0 8.234,-2.164 14.294,14.294 0 0 0 5.6,-6.306 H 706.7 a 29.613,29.613 0 0 1 -11.2,16.893 q -8.375,6.165 -20.139,6.164 A 34.286,34.286 0 0 1 658.19,203.8 30.347,30.347 0 0 1 646.376,191.895 35.241,35.241 0 0 1 642.141,174.486 M 739,208.364 a 28.991,28.991 0 0 1 -13.881,-3.294 24.116,24.116 0 0 1 -9.693,-9.411 30.479,30.479 0 0 1 0.047,-28.561 24.258,24.258 0 0 1 9.784,-9.458 31.094,31.094 0 0 1 27.856,0 24.258,24.258 0 0 1 9.787,9.46 27.892,27.892 0 0 1 3.576,14.257 27.611,27.611 0 0 1 -3.623,14.258 24.506,24.506 0 0 1 -9.881,9.458 29.549,29.549 0 0 1 -13.972,3.291 m 0,-13.928 a 10.486,10.486 0 0 0 7.858,-3.387 q 3.247,-3.388 3.246,-9.693 -0.001,-6.305 -3.153,-9.7 a 10.694,10.694 0 0 0 -15.116,-0.5 q -0.236,0.22 -0.458,0.455 -3.107,3.341 -3.106,9.742 0,6.306 3.058,9.693 a 9.9,9.9 0 0 0 7.671,3.39 m 64.322,-39.9 q 9.222,0 14.726,5.976 5.504,5.976 5.5,16.422 v 30.679 h -16 V 179.1 q 0,-5.27 -2.729,-8.187 a 10.693,10.693 0 0 0 -14.68,0 q -2.729,2.918 -2.729,8.187 v 28.514 H 771.32 V 155.1 h 16.092 v 6.966 a 16.985,16.985 0 0 1 6.587,-5.5 20.939,20.939 0 0 1 9.318,-2.028 z m 57.724,39.431 v 13.645 h -8.188 q -8.752,0 -13.645,-4.282 -4.893,-4.282 -4.894,-13.974 v -20.894 h -6.4 V 155.1 h 6.4 v -12.8 h 16.093 v 12.8 h 10.54 v 13.362 h -10.54 v 21.081 a 4.413,4.413 0 0 0 1.129,3.388 5.514,5.514 0 0 0 3.764,1.035 z m 55.466,-13.456 a 40.981,40.981 0 0 1 -0.283,4.706 h -36.424 a 10.942,10.942 0 0 0 3.152,7.482 9.635,9.635 0 0 0 6.823,2.588 q 6.024,0 8.376,-5.082 h 17.127 a 23.505,23.505 0 0 1 -4.752,9.317 23.788,23.788 0 0 1 -8.611,6.493 27.656,27.656 0 0 1 -11.575,2.353 28.173,28.173 0 0 1 -13.74,-3.294 23.431,23.431 0 0 1 -9.411,-9.413 29.059,29.059 0 0 1 -3.386,-14.305 29.39,29.39 0 0 1 3.339,-14.306 23.123,23.123 0 0 1 9.364,-9.411 30.5,30.5 0 0 1 27.384,-0.1 22.977,22.977 0 0 1 9.27,9.134 27.718,27.718 0 0 1 3.341,13.833 m -16.469,-4.239 a 8.274,8.274 0 0 0 -2.827,-6.587 10.393,10.393 0 0 0 -7.057,-2.447 10.19,10.19 0 0 0 -6.823,2.352 10.45,10.45 0 0 0 -3.435,6.682 z m 53.215,-21.74 q 9.222,0 14.727,5.976 5.505,5.976 5.5,16.421 v 30.682 H 957.49 V 179.1 q 0,-5.27 -2.729,-8.187 a 10.694,10.694 0 0 0 -14.681,0 q -2.729,2.918 -2.729,8.187 v 28.514 H 921.259 V 155.1 h 16.091 v 6.966 a 16.974,16.974 0 0 1 6.587,-5.5 20.933,20.933 0 0 1 9.317,-2.028 z m 57.725,39.431 v 13.649 h -8.187 q -8.752,0 -13.645,-4.282 -4.893,-4.282 -4.894,-13.974 v -20.889 h -6.4 V 155.1 h 6.4 v -12.8 h 16.092 v 12.8 h 10.541 v 13.362 h -10.541 v 21.081 a 4.414,4.414 0 0 0 1.129,3.388 5.511,5.511 0 0 0 3.764,1.035 z"
       transform="translate(-133.563,-29.284)"
       fill="#023250" />
  </g>
</svg>
