<?xml version="1.0" encoding="UTF-8" standalone="no"?>
<svg
   width="982.97998"
   height="389.46899"
   viewBox="0 0 982.97998 389.46899"
   version="1.1"
   id="svg1"
   sodipodi:docname="logo_the_content_engine_compress.svg"
   inkscape:version="1.3.1 (91b66b0, 2023-11-16)"
   xmlns:inkscape="http://www.inkscape.org/namespaces/inkscape"
   xmlns:sodipodi="http://sodipodi.sourceforge.net/DTD/sodipodi-0.dtd"
   xmlns="http://www.w3.org/2000/svg"
   xmlns:svg="http://www.w3.org/2000/svg">
  <sodipodi:namedview
     id="namedview1"
     pagecolor="#ffffff"
     bordercolor="#cccccc"
     borderopacity="1"
     inkscape:showpageshadow="0"
     inkscape:pageopacity="1"
     inkscape:pagecheckerboard="0"
     inkscape:deskcolor="#d1d1d1"
     inkscape:zoom="0.42565056"
     inkscape:cx="488.66376"
     inkscape:cy="194.99563"
     inkscape:window-width="1392"
     inkscape:window-height="1027"
     inkscape:window-x="0"
     inkscape:window-y="25"
     inkscape:window-maximized="0"
     inkscape:current-layer="svg1" />
  <defs
     id="defs1">
    <clipPath
       id="clip-path">
      <rect
         id="Rectangle_4598"
         data-name="Rectangle 4598"
         width="982.98499"
         height="389.46899"
         fill="#023250"
         x="0"
         y="0" />
    </clipPath>
    <clipPath
       id="clip-path-2">
      <rect
         id="Rectangle_4596"
         data-name="Rectangle 4596"
         width="367.17801"
         height="371.47299"
         transform="translate(0,0.535)"
         fill="#023250"
         x="0"
         y="0" />
    </clipPath>
    <clipPath
       id="clip-path-3">
      <rect
         id="Rectangle_4549"
         data-name="Rectangle 4549"
         width="28.576"
         height="28.576"
         transform="translate(171.448,171.984)"
         fill="#023250"
         x="0"
         y="0" />
    </clipPath>
    <clipPath
       id="clip-path-4">
      <rect
         id="Rectangle_4548"
         data-name="Rectangle 4548"
         width="28.573999"
         height="28.573999"
         transform="translate(171.45,171.985)"
         fill="#023250"
         x="0"
         y="0" />
    </clipPath>
    <clipPath
       id="clip-path-5">
      <rect
         id="Rectangle_4551"
         data-name="Rectangle 4551"
         width="28.577"
         height="28.576"
         transform="translate(209.739,171.984)"
         fill="#023250"
         x="0"
         y="0" />
    </clipPath>
    <clipPath
       id="clip-path-6">
      <rect
         id="Rectangle_4550"
         data-name="Rectangle 4550"
         width="28.575001"
         height="28.573999"
         transform="translate(209.739,171.985)"
         fill="#023250"
         x="0"
         y="0" />
    </clipPath>
    <clipPath
       id="clip-path-7">
      <rect
         id="Rectangle_4553"
         data-name="Rectangle 4553"
         width="28.576"
         height="28.576"
         transform="translate(248.029,171.984)"
         fill="#023250"
         x="0"
         y="0" />
    </clipPath>
    <clipPath
       id="clip-path-8">
      <rect
         id="Rectangle_4552"
         data-name="Rectangle 4552"
         width="28.575001"
         height="28.573999"
         transform="translate(248.03,171.985)"
         fill="#023250"
         x="0"
         y="0" />
    </clipPath>
    <clipPath
       id="clip-path-9">
      <rect
         id="Rectangle_4555"
         data-name="Rectangle 4555"
         width="28.576"
         height="28.576"
         transform="translate(286.319,171.984)"
         fill="#023250"
         x="0"
         y="0" />
    </clipPath>
    <clipPath
       id="clip-path-10">
      <rect
         id="Rectangle_4554"
         data-name="Rectangle 4554"
         width="28.573999"
         height="28.573999"
         transform="translate(286.32,171.985)"
         fill="#023250"
         x="0"
         y="0" />
    </clipPath>
    <clipPath
       id="clip-path-11">
      <rect
         id="Rectangle_4557"
         data-name="Rectangle 4557"
         width="28.586"
         height="28.584999"
         transform="translate(338.597,133.83)"
         fill="#023250"
         x="0"
         y="0" />
    </clipPath>
    <clipPath
       id="clip-path-12">
      <rect
         id="Rectangle_4556"
         data-name="Rectangle 4556"
         width="28.580999"
         height="28.580999"
         transform="translate(338.597,133.83)"
         fill="#023250"
         x="0"
         y="0" />
    </clipPath>
    <clipPath
       id="clip-path-13">
      <rect
         id="Rectangle_4559"
         data-name="Rectangle 4559"
         width="28.580999"
         height="28.580999"
         transform="translate(325.917,97.591)"
         fill="#023250"
         x="0"
         y="0" />
    </clipPath>
    <clipPath
       id="clip-path-15">
      <rect
         id="Rectangle_4561"
         data-name="Rectangle 4561"
         width="28.577"
         height="28.577999"
         transform="translate(305.493,65.085)"
         fill="#023250"
         x="0"
         y="0" />
    </clipPath>
    <clipPath
       id="clip-path-16">
      <rect
         id="Rectangle_4560"
         data-name="Rectangle 4560"
         width="28.577"
         height="28.577"
         transform="translate(305.493,65.086)"
         fill="#023250"
         x="0"
         y="0" />
    </clipPath>
    <clipPath
       id="clip-path-17">
      <rect
         id="Rectangle_4563"
         data-name="Rectangle 4563"
         width="28.577"
         height="28.577"
         transform="translate(278.345,37.938)"
         fill="#023250"
         x="0"
         y="0" />
    </clipPath>
    <clipPath
       id="clip-path-19">
      <rect
         id="Rectangle_4565"
         data-name="Rectangle 4565"
         width="28.580999"
         height="28.580999"
         transform="translate(209.597,4.83)"
         fill="#023250"
         x="0"
         y="0" />
    </clipPath>
    <clipPath
       id="clip-path-21">
      <rect
         id="Rectangle_4567"
         data-name="Rectangle 4567"
         width="28.576"
         height="28.576"
         transform="translate(171.45,0.535)"
         fill="#023250"
         x="0"
         y="0" />
    </clipPath>
    <clipPath
       id="clip-path-22">
      <rect
         id="Rectangle_4566"
         data-name="Rectangle 4566"
         width="28.573999"
         height="28.573999"
         transform="translate(171.45,0.535)"
         fill="#023250"
         x="0"
         y="0" />
    </clipPath>
    <clipPath
       id="clip-path-23">
      <rect
         id="Rectangle_4569"
         data-name="Rectangle 4569"
         width="28.584"
         height="28.582001"
         transform="translate(133.295,4.829)"
         fill="#023250"
         x="0"
         y="0" />
    </clipPath>
    <clipPath
       id="clip-path-24">
      <rect
         id="Rectangle_4568"
         data-name="Rectangle 4568"
         width="28.580999"
         height="28.580999"
         transform="translate(133.295,4.83)"
         fill="#023250"
         x="0"
         y="0" />
    </clipPath>
    <clipPath
       id="clip-path-25">
      <rect
         id="Rectangle_4571"
         data-name="Rectangle 4571"
         width="28.582001"
         height="28.582001"
         transform="translate(97.056,17.51)"
         fill="#023250"
         x="0"
         y="0" />
    </clipPath>
    <clipPath
       id="clip-path-26">
      <rect
         id="Rectangle_4570"
         data-name="Rectangle 4570"
         width="28.580999"
         height="28.580999"
         transform="translate(97.057,17.51)"
         fill="#023250"
         x="0"
         y="0" />
    </clipPath>
    <clipPath
       id="clip-path-27">
      <rect
         id="Rectangle_4573"
         data-name="Rectangle 4573"
         width="28.576"
         height="28.577"
         transform="translate(37.404,65.086)"
         fill="#023250"
         x="0"
         y="0" />
    </clipPath>
    <clipPath
       id="clip-path-29">
      <rect
         id="Rectangle_4575"
         data-name="Rectangle 4575"
         width="28.580999"
         height="28.580999"
         transform="translate(16.976,97.591)"
         fill="#023250"
         x="0"
         y="0" />
    </clipPath>
    <clipPath
       id="clip-path-31">
      <rect
         id="Rectangle_4577"
         data-name="Rectangle 4577"
         width="28.580999"
         height="28.580999"
         transform="translate(4.295,133.83)"
         fill="#023250"
         x="0"
         y="0" />
    </clipPath>
    <clipPath
       id="clip-path-33">
      <rect
         id="Rectangle_4579"
         data-name="Rectangle 4579"
         width="28.576"
         height="28.576"
         transform="translate(0,171.984)"
         fill="#023250"
         x="0"
         y="0" />
    </clipPath>
    <clipPath
       id="clip-path-34">
      <rect
         id="Rectangle_4578"
         data-name="Rectangle 4578"
         width="28.575001"
         height="28.573999"
         transform="translate(0,171.985)"
         fill="#023250"
         x="0"
         y="0" />
    </clipPath>
    <clipPath
       id="clip-path-35">
      <rect
         id="Rectangle_4581"
         data-name="Rectangle 4581"
         width="28.582001"
         height="28.582001"
         transform="translate(16.976,246.37)"
         fill="#023250"
         x="0"
         y="0" />
    </clipPath>
    <clipPath
       id="clip-path-36">
      <rect
         id="Rectangle_4580"
         data-name="Rectangle 4580"
         width="28.580999"
         height="28.580999"
         transform="translate(16.976,246.37)"
         fill="#023250"
         x="0"
         y="0" />
    </clipPath>
    <clipPath
       id="clip-path-37">
      <rect
         id="Rectangle_4583"
         data-name="Rectangle 4583"
         width="28.577999"
         height="28.577"
         transform="translate(37.404,278.88)"
         fill="#023250"
         x="0"
         y="0" />
    </clipPath>
    <clipPath
       id="clip-path-38">
      <rect
         id="Rectangle_4582"
         data-name="Rectangle 4582"
         width="28.576"
         height="28.576"
         transform="translate(37.404,278.88)"
         fill="#023250"
         x="0"
         y="0" />
    </clipPath>
    <clipPath
       id="clip-path-39">
      <rect
         id="Rectangle_4585"
         data-name="Rectangle 4585"
         width="28.576"
         height="28.576"
         transform="translate(64.552,306.028)"
         fill="#023250"
         x="0"
         y="0" />
    </clipPath>
    <clipPath
       id="clip-path-41">
      <rect
         id="Rectangle_4587"
         data-name="Rectangle 4587"
         width="28.580999"
         height="28.580999"
         transform="translate(97.057,326.451)"
         fill="#023250"
         x="0"
         y="0" />
    </clipPath>
    <clipPath
       id="clip-path-43">
      <rect
         id="Rectangle_4589"
         data-name="Rectangle 4589"
         width="28.576"
         height="28.577"
         transform="translate(171.45,343.431)"
         fill="#023250"
         x="0"
         y="0" />
    </clipPath>
    <clipPath
       id="clip-path-44">
      <rect
         id="Rectangle_4588"
         data-name="Rectangle 4588"
         width="28.573999"
         height="28.575001"
         transform="translate(171.45,343.433)"
         fill="#023250"
         x="0"
         y="0" />
    </clipPath>
    <clipPath
       id="clip-path-45">
      <rect
         id="Rectangle_4591"
         data-name="Rectangle 4591"
         width="28.580999"
         height="28.580999"
         transform="translate(209.597,339.131)"
         fill="#023250"
         x="0"
         y="0" />
    </clipPath>
    <clipPath
       id="clip-path-47">
      <rect
         id="Rectangle_4593"
         data-name="Rectangle 4593"
         width="28.582001"
         height="28.580999"
         transform="translate(245.835,326.451)"
         fill="#023250"
         x="0"
         y="0" />
    </clipPath>
    <clipPath
       id="clip-path-48">
      <rect
         id="Rectangle_4592"
         data-name="Rectangle 4592"
         width="28.580999"
         height="28.580999"
         transform="translate(245.835,326.451)"
         fill="#023250"
         x="0"
         y="0" />
    </clipPath>
    <clipPath
       id="clip-path-49">
      <rect
         id="Rectangle_4595"
         data-name="Rectangle 4595"
         width="28.577"
         height="28.576"
         transform="translate(278.345,306.027)"
         fill="#023250"
         x="0"
         y="0" />
    </clipPath>
    <clipPath
       id="clip-path-50">
      <rect
         id="Rectangle_4594"
         data-name="Rectangle 4594"
         width="28.577"
         height="28.576"
         transform="translate(278.345,306.028)"
         fill="#023250"
         x="0"
         y="0" />
    </clipPath>
    <clipPath
       id="clip-TCE_LOGO_DARK_BLUE">
      <rect
         width="1076"
         height="470"
         id="rect1"
         x="0"
         y="0" />
    </clipPath>
  </defs>
  <g
     id="TCE_LOGO_DARK_BLUE"
     data-name="TCE LOGO DARK BLUE"
     clip-path="url(#clip-TCE_LOGO_DARK_BLUE)"
     transform="translate(-48.508,-40.266)">
    <g
       id="Group_7111"
       data-name="Group 7111"
       transform="translate(48.508,40.266)">
      <g
         id="Group_7109"
         data-name="Group 7109"
         clip-path="url(#clip-path)">
        <g
           id="Group_7106"
           data-name="Group 7106">
          <g
             id="Group_7105"
             data-name="Group 7105"
             clip-path="url(#clip-path-2)">
            <path
               id="Path_6381"
               data-name="Path 6381"
               d="M 185.736,243.422 A 57.15,57.15 0 1 1 230.5,150.774 l 44.781,-35.517 a 114.3,114.3 0 1 0 0,142.03 L 230.5,221.772 a 57.019,57.019 0 0 1 -44.763,21.65"
               fill="#023250" />
            <g
               id="Group_6989"
               data-name="Group 6989"
               opacity="0.1">
              <g
                 id="Group_6988"
                 data-name="Group 6988">
                <g
                   id="Group_6987"
                   data-name="Group 6987"
                   clip-path="url(#clip-path-3)">
                  <g
                     id="Group_6986"
                     data-name="Group 6986">
                    <g
                       id="Group_6985"
                       data-name="Group 6985"
                       clip-path="url(#clip-path-4)">
                      <path
                         id="Path_6382"
                         data-name="Path 6382"
                         d="m 200.024,186.272 a 14.288,14.288 0 1 1 -14.288,-14.288 14.288,14.288 0 0 1 14.288,14.288 z"
                         fill="#023250" />
                    </g>
                  </g>
                </g>
              </g>
            </g>
            <g
               id="Group_6994"
               data-name="Group 6994"
               opacity="0.25">
              <g
                 id="Group_6993"
                 data-name="Group 6993">
                <g
                   id="Group_6992"
                   data-name="Group 6992"
                   clip-path="url(#clip-path-5)">
                  <g
                     id="Group_6991"
                     data-name="Group 6991">
                    <g
                       id="Group_6990"
                       data-name="Group 6990"
                       clip-path="url(#clip-path-6)">
                      <path
                         id="Path_6383"
                         data-name="Path 6383"
                         d="m 238.315,186.272 a 14.288,14.288 0 1 1 -14.288,-14.288 v 0 a 14.288,14.288 0 0 1 14.288,14.286 v 0"
                         fill="#023250" />
                    </g>
                  </g>
                </g>
              </g>
            </g>
            <g
               id="Group_6999"
               data-name="Group 6999"
               opacity="0.5">
              <g
                 id="Group_6998"
                 data-name="Group 6998">
                <g
                   id="Group_6997"
                   data-name="Group 6997"
                   clip-path="url(#clip-path-7)">
                  <g
                     id="Group_6996"
                     data-name="Group 6996">
                    <g
                       id="Group_6995"
                       data-name="Group 6995"
                       clip-path="url(#clip-path-8)">
                      <path
                         id="Path_6384"
                         data-name="Path 6384"
                         d="m 276.605,186.272 a 14.288,14.288 0 1 1 -14.288,-14.288 14.288,14.288 0 0 1 14.288,14.288 z"
                         fill="#023250" />
                    </g>
                  </g>
                </g>
              </g>
            </g>
            <g
               id="Group_7004"
               data-name="Group 7004"
               opacity="0.75">
              <g
                 id="Group_7003"
                 data-name="Group 7003">
                <g
                   id="Group_7002"
                   data-name="Group 7002"
                   clip-path="url(#clip-path-9)">
                  <g
                     id="Group_7001"
                     data-name="Group 7001">
                    <g
                       id="Group_7000"
                       data-name="Group 7000"
                       clip-path="url(#clip-path-10)">
                      <path
                         id="Path_6385"
                         data-name="Path 6385"
                         d="m 314.895,186.272 a 14.288,14.288 0 1 1 -14.289,-14.288 14.288,14.288 0 0 1 14.289,14.288 z"
                         fill="#023250" />
                    </g>
                  </g>
                </g>
              </g>
            </g>
            <path
               id="Path_6386"
               data-name="Path 6386"
               d="M 353.186,186.271 A 14.288,14.288 0 1 1 338.9,171.983 14.288,14.288 0 0 1 353.188,186.271 Z"
               fill="#023250" />
            <g
               id="Group_7009"
               data-name="Group 7009"
               opacity="0.1">
              <g
                 id="Group_7008"
                 data-name="Group 7008">
                <g
                   id="Group_7007"
                   data-name="Group 7007"
                   clip-path="url(#clip-path-11)">
                  <g
                     id="Group_7006"
                     data-name="Group 7006">
                    <g
                       id="Group_7005"
                       data-name="Group 7005"
                       clip-path="url(#clip-path-12)">
                      <path
                         id="Path_6387"
                         data-name="Path 6387"
                         d="m 366.821,144.942 a 14.288,14.288 0 1 1 -17.112,-10.742 14.288,14.288 0 0 1 17.112,10.747 v 0"
                         fill="#023250" />
                    </g>
                  </g>
                </g>
              </g>
            </g>
            <g
               id="Group_7014"
               data-name="Group 7014"
               opacity="0.25">
              <g
                 id="Group_7013"
                 data-name="Group 7013">
                <g
                   id="Group_7012"
                   data-name="Group 7012"
                   clip-path="url(#clip-path-13)">
                  <g
                     id="Group_7011"
                     data-name="Group 7011">
                    <g
                       id="Group_7010"
                       data-name="Group 7010"
                       clip-path="url(#clip-path-13)">
                      <path
                         id="Path_6388"
                         data-name="Path 6388"
                         d="m 353.08,105.683 a 14.287,14.287 0 1 1 -19.072,-6.674 14.287,14.287 0 0 1 19.072,6.674"
                         fill="#023250" />
                    </g>
                  </g>
                </g>
              </g>
            </g>
            <g
               id="Group_7019"
               data-name="Group 7019"
               opacity="0.5">
              <g
                 id="Group_7018"
                 data-name="Group 7018">
                <g
                   id="Group_7017"
                   data-name="Group 7017"
                   clip-path="url(#clip-path-15)">
                  <g
                     id="Group_7016"
                     data-name="Group 7016">
                    <g
                       id="Group_7015"
                       data-name="Group 7015"
                       clip-path="url(#clip-path-16)">
                      <path
                         id="Path_6389"
                         data-name="Path 6389"
                         d="M 330.951,70.466 A 14.287,14.287 0 1 1 310.872,68.2 14.288,14.288 0 0 1 330.951,70.462 Z"
                         fill="#023250" />
                    </g>
                  </g>
                </g>
              </g>
            </g>
            <g
               id="Group_7024"
               data-name="Group 7024"
               opacity="0.75">
              <g
                 id="Group_7023"
                 data-name="Group 7023">
                <g
                   id="Group_7022"
                   data-name="Group 7022"
                   clip-path="url(#clip-path-17)">
                  <g
                     id="Group_7021"
                     data-name="Group 7021">
                    <g
                       id="Group_7020"
                       data-name="Group 7020"
                       clip-path="url(#clip-path-17)">
                      <path
                         id="Path_6390"
                         data-name="Path 6390"
                         d="m 301.541,41.057 a 14.287,14.287 0 1 1 -20.079,2.263 14.288,14.288 0 0 1 20.079,-2.263 v 0"
                         fill="#023250" />
                    </g>
                  </g>
                </g>
              </g>
            </g>
            <path
               id="Path_6391"
               data-name="Path 6391"
               d="M 266.325,18.929 A 14.287,14.287 0 1 1 247.253,25.6 14.286,14.286 0 0 1 266.325,18.926"
               fill="#023250" />
            <g
               id="Group_7029"
               data-name="Group 7029"
               opacity="0.1">
              <g
                 id="Group_7028"
                 data-name="Group 7028">
                <g
                   id="Group_7027"
                   data-name="Group 7027"
                   clip-path="url(#clip-path-19)">
                  <g
                     id="Group_7026"
                     data-name="Group 7026">
                    <g
                       id="Group_7025"
                       data-name="Group 7025"
                       clip-path="url(#clip-path-19)">
                      <path
                         id="Path_6392"
                         data-name="Path 6392"
                         d="M 227.067,5.191 A 14.287,14.287 0 1 1 209.959,15.942 14.287,14.287 0 0 1 227.067,5.191"
                         fill="#023250" />
                    </g>
                  </g>
                </g>
              </g>
            </g>
            <g
               id="Group_7034"
               data-name="Group 7034"
               opacity="0.25">
              <g
                 id="Group_7033"
                 data-name="Group 7033">
                <g
                   id="Group_7032"
                   data-name="Group 7032"
                   clip-path="url(#clip-path-21)">
                  <g
                     id="Group_7031"
                     data-name="Group 7031">
                    <g
                       id="Group_7030"
                       data-name="Group 7030"
                       clip-path="url(#clip-path-22)">
                      <path
                         id="Path_6393"
                         data-name="Path 6393"
                         d="M 185.738,0.535 A 14.288,14.288 0 1 1 171.45,14.823 14.288,14.288 0 0 1 185.738,0.535"
                         fill="#023250" />
                    </g>
                  </g>
                </g>
              </g>
            </g>
            <g
               id="Group_7039"
               data-name="Group 7039"
               opacity="0.5">
              <g
                 id="Group_7038"
                 data-name="Group 7038">
                <g
                   id="Group_7037"
                   data-name="Group 7037"
                   clip-path="url(#clip-path-23)">
                  <g
                     id="Group_7036"
                     data-name="Group 7036">
                    <g
                       id="Group_7035"
                       data-name="Group 7035"
                       clip-path="url(#clip-path-24)">
                      <path
                         id="Path_6394"
                         data-name="Path 6394"
                         d="M 144.407,5.191 A 14.287,14.287 0 1 1 133.66,22.3 v 0 A 14.287,14.287 0 0 1 144.407,5.191"
                         fill="#023250" />
                    </g>
                  </g>
                </g>
              </g>
            </g>
            <g
               id="Group_7044"
               data-name="Group 7044"
               opacity="0.75">
              <g
                 id="Group_7043"
                 data-name="Group 7043">
                <g
                   id="Group_7042"
                   data-name="Group 7042"
                   clip-path="url(#clip-path-25)">
                  <g
                     id="Group_7041"
                     data-name="Group 7041">
                    <g
                       id="Group_7040"
                       data-name="Group 7040"
                       clip-path="url(#clip-path-26)">
                      <path
                         id="Path_6395"
                         data-name="Path 6395"
                         d="M 105.148,18.929 A 14.287,14.287 0 1 1 98.474,38 14.287,14.287 0 0 1 105.148,18.928"
                         fill="#023250" />
                    </g>
                  </g>
                </g>
              </g>
            </g>
            <path
               id="Path_6396"
               data-name="Path 6396"
               d="m 69.931,41.058 a 14.287,14.287 0 1 1 -2.263,20.079 14.288,14.288 0 0 1 2.263,-20.079 v 0"
               fill="#023250" />
            <g
               id="Group_7049"
               data-name="Group 7049"
               opacity="0.1">
              <g
                 id="Group_7048"
                 data-name="Group 7048">
                <g
                   id="Group_7047"
                   data-name="Group 7047"
                   clip-path="url(#clip-path-27)">
                  <g
                     id="Group_7046"
                     data-name="Group 7046">
                    <g
                       id="Group_7045"
                       data-name="Group 7045"
                       clip-path="url(#clip-path-27)">
                      <path
                         id="Path_6397"
                         data-name="Path 6397"
                         d="m 40.523,70.466 a 14.287,14.287 0 1 1 2.261,20.079 14.288,14.288 0 0 1 -2.261,-20.079 v 0"
                         fill="#023250" />
                    </g>
                  </g>
                </g>
              </g>
            </g>
            <g
               id="Group_7054"
               data-name="Group 7054"
               opacity="0.25">
              <g
                 id="Group_7053"
                 data-name="Group 7053">
                <g
                   id="Group_7052"
                   data-name="Group 7052"
                   clip-path="url(#clip-path-29)">
                  <g
                     id="Group_7051"
                     data-name="Group 7051">
                    <g
                       id="Group_7050"
                       data-name="Group 7050"
                       clip-path="url(#clip-path-29)">
                      <path
                         id="Path_6398"
                         data-name="Path 6398"
                         d="M 18.4,105.683 A 14.287,14.287 0 1 1 25.074,124.755 14.288,14.288 0 0 1 18.4,105.683"
                         fill="#023250" />
                    </g>
                  </g>
                </g>
              </g>
            </g>
            <g
               id="Group_7059"
               data-name="Group 7059"
               opacity="0.5">
              <g
                 id="Group_7058"
                 data-name="Group 7058">
                <g
                   id="Group_7057"
                   data-name="Group 7057"
                   clip-path="url(#clip-path-31)">
                  <g
                     id="Group_7056"
                     data-name="Group 7056">
                    <g
                       id="Group_7055"
                       data-name="Group 7055"
                       clip-path="url(#clip-path-31)">
                      <path
                         id="Path_6399"
                         data-name="Path 6399"
                         d="M 4.657,144.942 A 14.287,14.287 0 1 1 15.406,162.05 14.286,14.286 0 0 1 4.657,144.942"
                         fill="#023250" />
                    </g>
                  </g>
                </g>
              </g>
            </g>
            <g
               id="Group_7064"
               data-name="Group 7064"
               opacity="0.75">
              <g
                 id="Group_7063"
                 data-name="Group 7063">
                <g
                   id="Group_7062"
                   data-name="Group 7062"
                   clip-path="url(#clip-path-33)">
                  <g
                     id="Group_7061"
                     data-name="Group 7061">
                    <g
                       id="Group_7060"
                       data-name="Group 7060"
                       clip-path="url(#clip-path-34)">
                      <path
                         id="Path_6400"
                         data-name="Path 6400"
                         d="M 0,186.272 A 14.288,14.288 0 1 1 14.288,200.56 14.288,14.288 0 0 1 0,186.272"
                         fill="#023250" />
                    </g>
                  </g>
                </g>
              </g>
            </g>
            <path
               id="Path_6401"
               data-name="Path 6401"
               d="M 4.657,227.6 A 14.287,14.287 0 1 1 21.765,238.35 14.287,14.287 0 0 1 4.657,227.6"
               fill="#023250" />
            <g
               id="Group_7069"
               data-name="Group 7069"
               opacity="0.1">
              <g
                 id="Group_7068"
                 data-name="Group 7068">
                <g
                   id="Group_7067"
                   data-name="Group 7067"
                   clip-path="url(#clip-path-35)">
                  <g
                     id="Group_7066"
                     data-name="Group 7066">
                    <g
                       id="Group_7065"
                       data-name="Group 7065"
                       clip-path="url(#clip-path-36)">
                      <path
                         id="Path_6402"
                         data-name="Path 6402"
                         d="M 18.4,266.86 A 14.287,14.287 0 1 1 37.472,273.534 14.287,14.287 0 0 1 18.4,266.86"
                         fill="#023250" />
                    </g>
                  </g>
                </g>
              </g>
            </g>
            <g
               id="Group_7074"
               data-name="Group 7074"
               opacity="0.25">
              <g
                 id="Group_7073"
                 data-name="Group 7073">
                <g
                   id="Group_7072"
                   data-name="Group 7072"
                   clip-path="url(#clip-path-37)">
                  <g
                     id="Group_7071"
                     data-name="Group 7071">
                    <g
                       id="Group_7070"
                       data-name="Group 7070"
                       clip-path="url(#clip-path-38)">
                      <path
                         id="Path_6403"
                         data-name="Path 6403"
                         d="M 40.523,302.076 A 14.287,14.287 0 1 1 60.6,304.34 14.286,14.286 0 0 1 40.521,302.076"
                         fill="#023250" />
                    </g>
                  </g>
                </g>
              </g>
            </g>
            <g
               id="Group_7079"
               data-name="Group 7079"
               opacity="0.5">
              <g
                 id="Group_7078"
                 data-name="Group 7078">
                <g
                   id="Group_7077"
                   data-name="Group 7077"
                   clip-path="url(#clip-path-39)">
                  <g
                     id="Group_7076"
                     data-name="Group 7076">
                    <g
                       id="Group_7075"
                       data-name="Group 7075"
                       clip-path="url(#clip-path-39)">
                      <path
                         id="Path_6404"
                         data-name="Path 6404"
                         d="m 69.931,331.486 a 14.287,14.287 0 1 1 20.079,-2.261 14.288,14.288 0 0 1 -20.079,2.261"
                         fill="#023250" />
                    </g>
                  </g>
                </g>
              </g>
            </g>
            <g
               id="Group_7084"
               data-name="Group 7084"
               opacity="0.75">
              <g
                 id="Group_7083"
                 data-name="Group 7083">
                <g
                   id="Group_7082"
                   data-name="Group 7082"
                   clip-path="url(#clip-path-41)">
                  <g
                     id="Group_7081"
                     data-name="Group 7081">
                    <g
                       id="Group_7080"
                       data-name="Group 7080"
                       clip-path="url(#clip-path-41)">
                      <path
                         id="Path_6405"
                         data-name="Path 6405"
                         d="m 105.148,353.614 a 14.287,14.287 0 1 1 19.072,-6.674 14.288,14.288 0 0 1 -19.072,6.674"
                         fill="#023250" />
                    </g>
                  </g>
                </g>
              </g>
            </g>
            <path
               id="Path_6406"
               data-name="Path 6406"
               d="m 144.407,367.351 a 14.287,14.287 0 1 1 17.108,-10.75 14.288,14.288 0 0 1 -17.108,10.75"
               fill="#023250" />
            <g
               id="Group_7089"
               data-name="Group 7089"
               opacity="0.1">
              <g
                 id="Group_7088"
                 data-name="Group 7088">
                <g
                   id="Group_7087"
                   data-name="Group 7087"
                   clip-path="url(#clip-path-43)">
                  <g
                     id="Group_7086"
                     data-name="Group 7086">
                    <g
                       id="Group_7085"
                       data-name="Group 7085"
                       clip-path="url(#clip-path-44)">
                      <path
                         id="Path_6407"
                         data-name="Path 6407"
                         d="m 185.738,372.007 a 14.288,14.288 0 1 1 14.288,-14.288 14.288,14.288 0 0 1 -14.288,14.288 z"
                         fill="#023250" />
                    </g>
                  </g>
                </g>
              </g>
            </g>
            <g
               id="Group_7094"
               data-name="Group 7094"
               opacity="0.25">
              <g
                 id="Group_7093"
                 data-name="Group 7093">
                <g
                   id="Group_7092"
                   data-name="Group 7092"
                   clip-path="url(#clip-path-45)">
                  <g
                     id="Group_7091"
                     data-name="Group 7091">
                    <g
                       id="Group_7090"
                       data-name="Group 7090"
                       clip-path="url(#clip-path-45)">
                      <path
                         id="Path_6408"
                         data-name="Path 6408"
                         d="m 227.067,367.35 a 14.287,14.287 0 1 1 10.75,-17.108 14.287,14.287 0 0 1 -10.75,17.108"
                         fill="#023250" />
                    </g>
                  </g>
                </g>
              </g>
            </g>
            <g
               id="Group_7099"
               data-name="Group 7099"
               opacity="0.5">
              <g
                 id="Group_7098"
                 data-name="Group 7098">
                <g
                   id="Group_7097"
                   data-name="Group 7097"
                   clip-path="url(#clip-path-47)">
                  <g
                     id="Group_7096"
                     data-name="Group 7096">
                    <g
                       id="Group_7095"
                       data-name="Group 7095"
                       clip-path="url(#clip-path-48)">
                      <path
                         id="Path_6409"
                         data-name="Path 6409"
                         d="M 266.325,353.614 A 14.287,14.287 0 1 1 273,334.542 14.287,14.287 0 0 1 266.326,353.614"
                         fill="#023250" />
                    </g>
                  </g>
                </g>
              </g>
            </g>
            <g
               id="Group_7104"
               data-name="Group 7104"
               opacity="0.75">
              <g
                 id="Group_7103"
                 data-name="Group 7103">
                <g
                   id="Group_7102"
                   data-name="Group 7102"
                   clip-path="url(#clip-path-49)">
                  <g
                     id="Group_7101"
                     data-name="Group 7101">
                    <g
                       id="Group_7100"
                       data-name="Group 7100"
                       clip-path="url(#clip-path-50)">
                      <path
                         id="Path_6410"
                         data-name="Path 6410"
                         d="m 301.541,331.486 a 14.287,14.287 0 1 1 2.263,-20.079 14.288,14.288 0 0 1 -2.263,20.079"
                         fill="#023250" />
                    </g>
                  </g>
                </g>
              </g>
            </g>
            <path
               id="Path_6411"
               data-name="Path 6411"
               d="M 330.95,302.076 A 14.287,14.287 0 1 1 328.687,282 a 14.288,14.288 0 0 1 2.263,20.079"
               fill="#023250" />
          </g>
        </g>
        <g
           id="Group_7108"
           data-name="Group 7108">
          <g
             id="Group_7107"
             data-name="Group 7107"
             clip-path="url(#clip-path)">
            <path
               id="Path_6412"
               data-name="Path 6412"
               d="m 544.752,8.977 v 7.339 h -24.547 v 81.109 h -8.858 V 16.316 H 486.673 V 8.977 Z M 591.7,27.071 a 29.865,29.865 0 0 1 14.109,3.29 23.446,23.446 0 0 1 9.868,10.06 q 3.606,6.769 3.606,16.513 v 40.491 h -8.731 V 57.946 q 0,-11.262 -5.631,-17.209 -5.631,-5.947 -15.371,-5.948 -10,0 -15.943,6.327 -5.943,6.327 -5.947,18.6 V 97.425 H 558.8 V 3.789 h 8.857 V 40.1 a 22.9,22.9 0 0 1 9.68,-9.617 29.984,29.984 0 0 1 14.363,-3.412 z m 109.7,32.267 q 0,4.555 -0.253,6.959 h -57.32 a 27.807,27.807 0 0 0 3.8,13.413 22.351,22.351 0 0 0 8.984,8.415 26.294,26.294 0 0 0 12.147,2.847 q 8.6,0 14.488,-4.176 a 19.607,19.607 0 0 0 7.782,-11.262 h 9.364 a 29.258,29.258 0 0 1 -10.821,16.513 q -8.288,6.39 -20.815,6.39 a 34.85,34.85 0 0 1 -17.456,-4.365 30.827,30.827 0 0 1 -12.084,-12.4 38.76,38.76 0 0 1 -4.365,-18.79 39.6,39.6 0 0 1 4.3,-18.854 29.9,29.9 0 0 1 12.021,-12.4 35.5,35.5 0 0 1 17.588,-4.3 33.752,33.752 0 0 1 17.272,4.3 29.726,29.726 0 0 1 11.388,11.577 33.027,33.027 0 0 1 3.98,16.133 m -8.984,-0.253 a 24.546,24.546 0 0 0 -3.1,-13.16 20.925,20.925 0 0 0 -8.794,-8.225 26.775,26.775 0 0 0 -12.151,-2.784 24.133,24.133 0 0 0 -16.825,6.327 q -6.958,6.327 -7.719,17.841 z"
               fill="#023250" />
            <path
               id="Path_6413"
               data-name="Path 6413"
               d="m 501.858,274.317 v 33.025 h 33.532 v 7.339 h -33.532 v 33.532 h 37.328 v 7.339 H 493 v -88.574 h 46.185 v 7.339 z m 87.183,10.883 q 12.4,0 20.246,7.655 7.846,7.655 7.845,22.207 v 40.492 H 608.4 v -39.481 q 0,-11.262 -5.631,-17.209 -5.631,-5.947 -15.369,-5.947 -10,0 -15.943,6.327 -5.943,6.327 -5.952,18.6 v 37.707 h -8.853 v -69.087 h 8.848 v 11.768 a 22.612,22.612 0 0 1 9.49,-9.68 29.048,29.048 0 0 1 14.05,-3.354 m 76.68,0.253 a 31.083,31.083 0 0 1 16.956,4.555 26.567,26.567 0 0 1 10.375,11.516 v -15.058 h 8.857 v 70.86 a 33.843,33.843 0 0 1 -4.108,16.829 28.453,28.453 0 0 1 -11.451,11.325 34.424,34.424 0 0 1 -16.7,3.986 q -13.285,0 -22.08,-6.327 a 26.841,26.841 0 0 1 -10.952,-17.209 h 8.731 a 21.256,21.256 0 0 0 8.668,11.515 q 6.39,4.3 15.627,4.3 a 25.046,25.046 0 0 0 12.02,-2.845 20.333,20.333 0 0 0 8.351,-8.415 27.08,27.08 0 0 0 3.037,-13.16 v -17.082 a 27.741,27.741 0 0 1 -10.439,11.7 30.442,30.442 0 0 1 -16.892,4.619 32.937,32.937 0 0 1 -17.02,-4.424 30.7,30.7 0 0 1 -11.768,-12.527 43.341,43.341 0 0 1 0,-37.391 30.353,30.353 0 0 1 11.767,-12.4 33.3,33.3 0 0 1 17.02,-4.365 z m 27.331,35.557 a 30.411,30.411 0 0 0 -3.416,-14.678 24.37,24.37 0 0 0 -9.3,-9.743 25.357,25.357 0 0 0 -12.97,-3.416 26.272,26.272 0 0 0 -13.16,3.29 23.319,23.319 0 0 0 -9.174,9.553 31.068,31.068 0 0 0 -3.353,14.868 31.549,31.549 0 0 0 3.353,14.868 23.566,23.566 0 0 0 9.174,9.743 25.879,25.879 0 0 0 13.16,3.353 25.357,25.357 0 0 0 12.97,-3.416 24.37,24.37 0 0 0 9.3,-9.743 30.415,30.415 0 0 0 3.416,-14.679 m 33.532,-47.577 a 6.212,6.212 0 0 1 -4.555,-1.9 6.36,6.36 0 0 1 -1.9,-4.682 6.153,6.153 0 0 1 1.9,-4.619 6.571,6.571 0 0 1 9.11,0 6.153,6.153 0 0 1 1.9,4.619 6.36,6.36 0 0 1 -1.9,4.682 6.212,6.212 0 0 1 -4.555,1.9 m 4.429,13.033 v 69.088 h -8.857 v -69.088 z m 52.511,-1.266 q 12.4,0 20.246,7.655 7.846,7.655 7.845,22.207 v 40.492 h -8.731 v -39.479 q 0,-11.262 -5.631,-17.209 -5.631,-5.947 -15.374,-5.947 -10,0 -15.943,6.327 -5.943,6.327 -5.947,18.6 v 37.708 h -8.857 v -69.088 h 8.857 v 11.768 a 22.612,22.612 0 0 1 9.49,-9.68 29.054,29.054 0 0 1 14.045,-3.354 m 110.212,32.267 q 0,4.556 -0.253,6.959 h -57.32 a 27.807,27.807 0 0 0 3.8,13.413 22.351,22.351 0 0 0 8.984,8.415 26.292,26.292 0 0 0 12.144,2.848 q 8.6,0 14.488,-4.176 a 19.607,19.607 0 0 0 7.782,-11.262 h 9.364 A 29.259,29.259 0 0 1 881.9,350.174 q -8.288,6.39 -20.815,6.39 a 34.849,34.849 0 0 1 -17.458,-4.366 30.827,30.827 0 0 1 -12.084,-12.4 38.771,38.771 0 0 1 -4.366,-18.79 39.6,39.6 0 0 1 4.3,-18.854 29.906,29.906 0 0 1 12.023,-12.4 35.5,35.5 0 0 1 17.588,-4.3 33.752,33.752 0 0 1 17.272,4.3 29.738,29.738 0 0 1 11.389,11.578 33.027,33.027 0 0 1 3.986,16.133 m -8.984,-0.253 a 24.546,24.546 0 0 0 -3.1,-13.16 20.925,20.925 0 0 0 -8.794,-8.225 26.784,26.784 0 0 0 -12.147,-2.783 24.132,24.132 0 0 0 -16.83,6.327 q -6.958,6.327 -7.719,17.841 z"
               fill="#023250" />
            <path
               id="Path_6414"
               data-name="Path 6414"
               d="m 487.055,181.966 a 47.753,47.753 0 0 1 5.694,-23.473 40.7,40.7 0 0 1 15.88,-16.07 46.105,46.105 0 0 1 23.093,-5.757 q 15.818,0 27.078,8.351 a 40.1,40.1 0 0 1 15.058,22.777 h -23.789 a 19.216,19.216 0 0 0 -7.529,-8.478 21.175,21.175 0 0 0 -11.072,-2.91 q -10,0 -16.2,6.959 -6.2,6.959 -6.2,18.6 0,11.642 6.2,18.6 6.2,6.958 16.2,6.959 a 21.175,21.175 0 0 0 11.072,-2.91 19.216,19.216 0 0 0 7.529,-8.478 h 23.789 A 39.815,39.815 0 0 1 558.8,218.85 q -11.262,8.287 -27.078,8.288 a 46.105,46.105 0 0 1 -23.093,-5.757 40.81,40.81 0 0 1 -15.885,-16.007 47.387,47.387 0 0 1 -5.694,-23.408 m 130.229,45.552 a 38.972,38.972 0 0 1 -18.664,-4.429 32.428,32.428 0 0 1 -13.033,-12.653 40.983,40.983 0 0 1 0.063,-38.4 32.622,32.622 0 0 1 13.155,-12.72 41.808,41.808 0 0 1 37.454,0 32.629,32.629 0 0 1 13.164,12.716 37.5,37.5 0 0 1 4.808,19.17 37.127,37.127 0 0 1 -4.872,19.17 32.95,32.95 0 0 1 -13.286,12.717 39.723,39.723 0 0 1 -18.789,4.429 m 0,-18.727 a 14.1,14.1 0 0 0 10.566,-4.555 q 4.365,-4.555 4.365,-13.033 0,-8.478 -4.239,-13.037 a 14.38,14.38 0 0 0 -20.325,-0.675 q -0.318,0.3 -0.616,0.612 -4.176,4.493 -4.176,13.1 0,8.478 4.112,13.033 a 13.312,13.312 0 0 0 10.313,4.555 m 86.485,-53.651 q 12.4,0 19.8,8.035 7.4,8.035 7.4,22.08 v 41.251 h -21.502 v -38.34 q 0,-7.086 -3.669,-11.008 a 14.378,14.378 0 0 0 -19.739,0 q -3.671,3.922 -3.67,11.008 v 38.34 H 660.746 V 155.9 h 21.637 v 9.367 a 22.82,22.82 0 0 1 8.857,-7.4 28.155,28.155 0 0 1 12.528,-2.726 z m 77.615,53.018 v 18.348 h -11.004 q -11.767,0 -18.348,-5.757 -6.581,-5.757 -6.58,-18.79 v -28.093 h -8.6 V 155.9 h 8.6 v -17.209 h 21.638 V 155.9 h 14.172 v 17.966 h -14.172 v 28.345 q 0,3.164 1.518,4.555 1.518,1.391 5.061,1.392 z m 74.577,-18.092 a 55.056,55.056 0 0 1 -0.38,6.327 h -48.964 q 0.505,6.58 4.239,10.06 a 12.953,12.953 0 0 0 9.174,3.48 q 8.1,0 11.262,-6.833 h 23.029 a 31.6,31.6 0 0 1 -6.39,12.527 31.993,31.993 0 0 1 -11.578,8.731 37.183,37.183 0 0 1 -15.564,3.163 37.875,37.875 0 0 1 -18.474,-4.429 31.5,31.5 0 0 1 -12.653,-12.656 39.069,39.069 0 0 1 -4.557,-19.236 39.5,39.5 0 0 1 4.489,-19.236 31.088,31.088 0 0 1 12.59,-12.653 41.014,41.014 0 0 1 36.821,-0.129 30.886,30.886 0 0 1 12.464,12.282 37.252,37.252 0 0 1 4.492,18.6 m -22.144,-5.7 a 11.127,11.127 0 0 0 -3.8,-8.857 13.975,13.975 0 0 0 -9.49,-3.29 13.7,13.7 0 0 0 -9.174,3.163 14.048,14.048 0 0 0 -4.618,8.984 z m 71.553,-29.23 q 12.4,0 19.8,8.035 7.4,8.035 7.4,22.08 v 41.255 h -21.5 v -38.34 q 0,-7.086 -3.67,-11.008 a 14.378,14.378 0 0 0 -19.739,0 q -3.671,3.922 -3.67,11.008 v 38.34 H 862.349 V 155.9 h 21.637 v 9.367 a 22.819,22.819 0 0 1 8.857,-7.4 28.155,28.155 0 0 1 12.528,-2.726 z m 77.615,53.018 v 18.352 h -11.003 q -11.767,0 -18.347,-5.757 -6.58,-5.757 -6.58,-18.79 v -28.091 h -8.6 V 155.9 h 8.6 v -17.209 h 21.637 V 155.9 h 14.172 v 17.966 h -14.172 v 28.345 q 0,3.164 1.518,4.555 1.518,1.391 5.061,1.392 z"
               fill="#023250" />
            <line
               id="Line_233"
               data-name="Line 233"
               y2="372.01199"
               transform="translate(428.469,-0.001)"
               fill="#ffffff"
               x1="0"
               y1="0"
               x2="0" />
            <line
               id="Line_234"
               data-name="Line 234"
               y2="372.01199"
               transform="translate(428.469,-0.001)"
               fill="none"
               stroke="#023250"
               stroke-width="0.75"
               x1="0"
               y1="0"
               x2="0" />
          </g>
        </g>
      </g>
    </g>
  </g>
</svg>
